# xmcd
#
# Track frame offsets:
#	150
#	15300
#	25727
#	37404
#	49597
#	60565
#	72506
#	82598
#	97520
#	109217
#	128086
#	143053
#	155704
#	181367
#	193729
#	204231
#	217835
#	229456
#	241013
#
# Disc length: 3385
#
# Revision: 1
# Processed by: cddbd v1.5.1PL0 Copyright (c) Steve Scherf et al.
# Submitted via: ExactAudioCopy v0.90b4
# Normalized: r0:DSETVAR1,TDELIM( - )
#
DISCID=f60d3713
DTITLE=Various Artist - Sweet Soul Music CD3
DYEAR=2002
DGENRE=Soul
TTITLE0=Ray Charles - Drown In My Own Tears
TTITLE1=Carla Thomas - Gee Whiz
TTITLE2=Solomon Burke - Cry To Me
TTITLE3=Dinah Washington - Unforgettable
TTITLE4=Don Covay - Mercy Mercy
TTITLE5=The Mar-Keys - Last Night
TTITLE6=Buddy Guy And Junior Wells - MessinWith The Kid
TTITLE7=The Stylistics - I앐 Stone In Love With You
TTITLE8=Rufus Thomas - Walkig The Dog
TTITLE9=The Spinners - Couldn앖 It Be I앐 Falling In Love
TTITLE10=Isaac Hayes - Do Your Thing
TTITLE11=James Brown - It압 A Man압 Man압 World
TTITLE12=Otis Rush - Gambler압 Blues
TTITLE13=Ivory Joe Hunter - Since I Met You Baby
TTITLE14=Otis Redding - Love Man
TTITLE15=Gloria Gaynor - Never Can Say Goodbye
TTITLE16=The Capitols - Cool Jerk
TTITLE17=Wilson Pickett - In The Midnight Hour
TTITLE18=William Bell - A Tribute To A King
EXTD=
EXTT0=
EXTT1=
EXTT2=
EXTT3=
EXTT4=
EXTT5=
EXTT6=
EXTT7=
EXTT8=
EXTT9=
EXTT10=
EXTT11=
EXTT12=
EXTT13=
EXTT14=
EXTT15=
EXTT16=
EXTT17=
EXTT18=
PLAYORDER=
